<svg id="Calque_1" data-name="Calque 1" xmlns="http://www.w3.org/2000/svg" viewBox="0 0 307.96 329.08"><defs><style>.cls-1{fill:#fff;}.cls-2{fill:#151614;}.cls-3{fill:#f4e61c;}</style></defs><title>logo_Davids</title><path class="cls-1" d="M239.28,296.52q0-81.72,0-163.44c0-.9.2-1.1,1.1-1.1q152.88,0,305.76,0c.9,0,1.1.2,1.1,1.1q0,163.44,0,326.88c0,.9-.2,1.1-1.1,1.1q-152.88,0-305.76,0c-.9,0-1.1-.2-1.1-1.1Q239.3,378.24,239.28,296.52Zm213.6,19.8c.55-.42,1-.84.37-1.56-.23-.27-.08-.43.25-.6a1.27,1.27,0,0,0,.64-1.42c-.21-.54-.27-1.39-1.16-1.48-1.05-.11-1.15-.75-.94-1.62a9.61,9.61,0,0,0,.33-3.77,1.9,1.9,0,0,1,.14-.55c1.33-2.11,2.81-4.14,4-6.33a103.16,103.16,0,0,0,6.27-14.26c.6-1.7.76-3.5,1.39-5.16,1.19-3.11,1.59-6.39,2.35-9.59.63-2.64,1.16-5.3,1.65-8,.36-2,1.25-3.9,1.31-6a14,14,0,0,1,.38-2.35c.43-2.1,1.19-4.11,1.66-6.18.55-2.39,1.24-4.74,2-7.07a54.34,54.34,0,0,0,1.92-7.86c.88-5.5-1.61-10.16-3.93-14.79a73.77,73.77,0,0,1-4.13-8.91c.66-.74.25-1.52-.11-2.12-.75-1.24-.36-2.49-.11-3.68.13-.59,1.09-.62,1.75-.74a.7.7,0,0,0,.4-.22,1.39,1.39,0,0,1,2.31.12c.69,1.09,1.16.83,1.84.18a5.73,5.73,0,0,0-2.25-2.49.93.93,0,0,1-.06-1.66c.26-.21.66-.65.23-.8-.58-.21-.77-.88-1.42-.93a9.61,9.61,0,0,1-4.7-1.72,20.48,20.48,0,0,1-2.61-1.73,7.42,7.42,0,0,0-3.79-1.89c-.61-.23-.85-.81-1.21-1.28-2-2.52-3.77-5.17-6.47-7-1.12-.76-2.24-1.51-3.36-2.27a59.05,59.05,0,0,0-7.75-4.92c-4.69-2.24-9.47-4.29-14.15-6.54a11.62,11.62,0,0,0-4.8-1.22,10.94,10.94,0,0,1-1.88-.34c-4.6-1-9-3-13.84-2.68-2.82.16-5.59-.74-8.41-.9a3.61,3.61,0,0,1-3.14-2.14c-.2-.34-.34-.71-.52-1.07a2.39,2.39,0,0,0-2.9-1.14c-1.24.39-2.26,1.45-3.63,1.35a10.07,10.07,0,0,0-4.9,1.16c-5.16,2.26-10.66,3.63-15.9,5.7a20.14,20.14,0,0,1-4.78,1.37,29.36,29.36,0,0,0-10.42,3,54.46,54.46,0,0,0-7.66,5.28A51.09,51.09,0,0,0,332.92,188c-1.85,2.59-3.89,5.11-5,8.09-2.81,7.42-6.16,14.62-9.17,22a76.05,76.05,0,0,0-5.26,21.85c-.73,7.65-.6,15.32-.7,23A50.29,50.29,0,0,0,314.59,276a75.71,75.71,0,0,0,3.71,11.88,56.62,56.62,0,0,0,4.1,8.19c3.49,5.35,7.77,10.08,11.9,14.92,1.49,1.75,3.06,3.44,4.6,5.16a30.94,30.94,0,0,0-3.13,2.33c-.29.27-.08.85-.65.89-.24,0-.68-.06-.5.4s.18,1.36.67,1.24c1.1-.26,2.08.21,3.08.17,1.31-.05,2.19.23,2.71,1.47.09.22.16.65.51.57,1.12-.24,2,.53,3.09.6.54,0,.88-.35,1.51-.21,1.95.42,3.91.76,5.83,1.29a10.61,10.61,0,0,1,1.76.69c.54.37.93,0,1.47-.18.94-.33-.13.84.69,1.23,4.15,2,8.44,3.62,12.64,5.47,4,1.77,8.07,3.48,11.42,6.46,1.45,1.3,3.06,2.4,4.44,3.81a8,8,0,0,0,3.57,2.09,22.29,22.29,0,0,1,4.18,1.32,1.69,1.69,0,0,0,1,.14,2.1,2.1,0,0,0,1.83-1.45c1.21-2.55,3.6-3.08,6.13-3a51.18,51.18,0,0,0,11.06-.73,9.75,9.75,0,0,0,4.06-1.6c1.62-1.15,3.26-2.26,4.84-3.46,2.85-2.17,6.11-3.71,9-5.77,2.46-1.75,5.08-3.28,7.08-5.64,1.12-1.33,2.44-2.49,3.66-3.72.38.18,0,.7.37.89.25-.22-.07-.69.36-.8a.47.47,0,0,1,.58.3,1,1,0,0,0,1.46.54c.33-.2,1.23-.54.64-1.43-.21-.32.17-.67.61-.62.26,0,.46.17.63-.2s.49-.51.75-.13.23.65-.26.73c-.31.05-.4.22-.35.49s.34.25.56.28c.52.05,1,.12,1.13.8s.74.82,1.3.56.32-.71.06-1.17-.36-1.33.11-1.28a2.73,2.73,0,0,0,1.85-.76,4.27,4.27,0,0,0,2.2-2.51Zm54.66,118.21a9.76,9.76,0,0,1-1-6.29c.86-4,2-8,.94-12.17-.12-.46.16-.67.52-.8.74-.27,1.49-.56,2.25-.78,2.06-.59,4.09-1.23,5.14-3.33,1.55-3.07,3.07-6.13,3.3-9.67.08-1.17.69-2.35.61-3.49-.15-2.22-.08-4.46-.39-6.68-.43-3.09-1.52-5.73-4.31-7.46a27.62,27.62,0,0,0-13-4.12c-3.58-.23-7.13-.74-10.7-1-2-.15-2.23-.51-1.41-2.32a6.36,6.36,0,0,1,.45-.69,48.06,48.06,0,0,1,4.72-5.69,2.33,2.33,0,0,1,2.64-.78c2,.53,3.91,1.07,5.88,1.54,1.74.41,4.12-1.33,4.51-3.09.31-1.36.5-2.47-1.17-3.12-.93-.36-1.6-1.24-2.63-1.57a32.36,32.36,0,0,0-6.47-.91c-4.78-.53-8.07,2.06-11.05,5.18a30.39,30.39,0,0,0-4.43,6.91c-2.58,4.81.18,9.12,5,10.17,3.23.7,6.54.25,9.8.54,2.3.2,4.58.36,6.86.73a8.14,8.14,0,0,1,4.47,1.7c2.83,2.54,4.87,5.42,3.72,9.46a42.13,42.13,0,0,1-4.39,10.32,5.43,5.43,0,0,1-5.66,2.62,42.14,42.14,0,0,0-6.35-.72,11.36,11.36,0,0,1-5-1.14c-2.48-1.14-4.93-2.35-7.49-3.27a9.83,9.83,0,0,1-5.46-4.08,3.26,3.26,0,0,0-4-1,2.75,2.75,0,0,1-1.44.31c-1.42-.11-2.69.61-2.5,1.38a7.26,7.26,0,0,0,.86,2.82,18.11,18.11,0,0,0,6,4.94,88.89,88.89,0,0,0,8.21,4c4.37,1.86,9.07,2,13.69,2.4,3.53.33,3.64.21,4.38,2.69a10.75,10.75,0,0,1,.3,2.34c0,.38-.18.81-.63.66-1.65-.56-3.16,0-4.62.58a8.74,8.74,0,0,0-5.79,7.84,24.44,24.44,0,0,0,.6,6.18c.75,3.05,1.22,4.37,4.91,5.16,1.82.39,3.56-.25,5.32-.37a1.71,1.71,0,0,1,1.9,1,6.36,6.36,0,0,1,.5,1.33,8.55,8.55,0,0,0,1.51,2.92,1.18,1.18,0,0,0,1.92.21,4.82,4.82,0,0,0,1.52-2.34c.69-2.21.38-1.67,2.26-.93a.91.91,0,0,1,.2.12,18.5,18.5,0,0,0,9,3.18c.71.09,1.6.33,2.27-.26a7.05,7.05,0,0,0,2.19-3.35c.15-.5.12-1.18-.3-1.29-1.1-.29-2-1.68-3.36-.78-.16.11-.47,0-.71,0a13.59,13.59,0,0,1-5.68-2,12.68,12.68,0,0,1-2.92-1.77,1.54,1.54,0,0,1-.35-1.86c.41-.68,1-.27,1.57,0a16.48,16.48,0,0,0,4.67,1.68,1.9,1.9,0,0,0,2.11-.9,20.26,20.26,0,0,0,2.15-5.37,7.2,7.2,0,0,0,.26-1.88,1.79,1.79,0,0,0-.95-1.78,1.6,1.6,0,0,1-.9-1.15,3.87,3.87,0,0,0-2.6-2.65,9.39,9.39,0,0,0-6,.23,6.12,6.12,0,0,0-2.61,1.7,11.29,11.29,0,0,0-2.67,7.55C507.65,432.88,507.59,433.53,507.54,434.53Zm-73-70.7a6.21,6.21,0,0,0-1.55,0c-1.5.4-3.22-.25-4.52,1.27A2.08,2.08,0,0,0,428,367c.13.77.35,1.67,1.33,1.77,1.13.12,1.36.76,1.29,1.72a3.94,3.94,0,0,0,.08.83,35.79,35.79,0,0,1,.26,8.34c-.31,3.21-.74,6.4-1.12,9.6q-.45,3.78-.92,7.56a40.32,40.32,0,0,0-.46,5.81c.05,2.67.5,5.32.45,8,0,.74-.27,1.17-1,1.21a4.49,4.49,0,0,0-4.11,2.85c-.72,1.57-.18,2.95,1.54,2.81a18,18,0,0,1,6.83.9,3,3,0,0,0,3.68-1.45c.24-.51.66-.31,1-.21a10,10,0,0,0,3.55.2,73.55,73.55,0,0,0,15.37-3.25c3.85-1.25,6.87-3.33,8.49-7.35q3-7.5,5.32-15.23a9.49,9.49,0,0,0-.21-6.84c-1-2.23-2-4.46-3-6.71-1.88-4.38-5.31-7-9.63-8.81a62.43,62.43,0,0,1-6.33-2.72c-1.7-.92-3.45-1.94-5.43-2C441.54,364.06,438,364.1,434.56,363.84ZM286.32,407.7h-.22c0,1.2-.06,2.4,0,3.6s-.52,1.31-1.31,1.05c-1.78-.58-3.54.27-5.3-.05-.41-.08-.66.07-.64.58a12.73,12.73,0,0,0,.43,4.25c.28.72.6,1.1,1.39.71a1.19,1.19,0,0,1,.68-.17,18.28,18.28,0,0,0,6-.1,23.26,23.26,0,0,1,3.06-.36,23.59,23.59,0,0,0,4,0,48.34,48.34,0,0,1,4.85-.63,19.56,19.56,0,0,0,5.45-.58c4.56-1.57,9.17-3,13.41-5.39a4.77,4.77,0,0,0,2.54-3.9,46,46,0,0,0,.62-4.71c0-2.77,1.26-5.49.15-8.32-.44-1.13-.75-2.34-1.19-3.48-1.1-2.91-1.92-5.9-3.84-8.5-2.3-3.12-4.54-6.25-7.84-8.4-1.9-1.23-3.79-2.47-5.68-3.71-2.21-1.46-4.37-3.06-7-3.63-2-.42-4.07-.47-5.92-1.19-3.6-1.42-6.88-.23-10.25.67-.4.11-.65.47-1,.63-1.4.68-.31,1.59-.16,2.28s.91.88,1.69.66c1-.29,2.08-.5,3.13-.75,1.82-.44,2.39.09,2.19,1.93-.31,2.8-.95,5.58-.42,8.44.18,1,.23,2,.32,3,.3,3.27,0,6.55.22,9.82.23,3.61,1,7.19.69,10.84C286.2,404,286.32,405.87,286.32,407.7ZM472,432a3.33,3.33,0,0,1-.38-.76c-.19-1.74-.34-3.48-.54-5.22a2.74,2.74,0,0,0-1.46-2.41,12.5,12.5,0,0,0-4.69-1.22,3.13,3.13,0,0,1-2.64-.94,2,2,0,0,0-3,.15c-.75,1.39-1.51,1.29-2.54.43a2.9,2.9,0,0,0-.94-.52c-1-.32-1.94-.86-3-.51-2.23.76-4.23,1.81-5.14,4.21-.18.48-.41,1.19-.91,1.14s-.46-.82-.61-1.3c-1.07-3.41-3.16-4.11-6.49-3.48a14.55,14.55,0,0,0-2.89,1,2.2,2.2,0,0,1-2.23-.07,3.85,3.85,0,0,0-3.77-.17,1.77,1.77,0,0,1-2.34-.24,2.21,2.21,0,0,0-2.77-.41,2.68,2.68,0,0,0-1.13,2.5,19.75,19.75,0,0,0,.69,4.45c.53,2.19,1.2,4.35,1.64,6.55a22.79,22.79,0,0,0,.62,3.86,2.13,2.13,0,0,0,1.78,1.39c.81.12,1-.66,1.33-1.16a4.82,4.82,0,0,0,.62-2.51,8.87,8.87,0,0,0-.29-4.49,15.47,15.47,0,0,1-.91-3.38c-.16-1,.84-.88,1.38-1.13s.82.28.84.71c.07,1.72.76,3.33.79,5.07a6.47,6.47,0,0,0,1.18,3.7c1,1.35,2.08,1.34,2.88-.1a7.5,7.5,0,0,0,.58-5.49c-.79-3.44-.65-3.7,2.07-4.54l.23-.07c1-.28,1.7.07,1.89,1.16a20.73,20.73,0,0,1-.08,8,7.86,7.86,0,0,0,.34,4.36,2.22,2.22,0,0,0,2.06,1.73c.94,0,1.27-.89,1.57-1.61.4-1,.86-1,1.59-.32a6.27,6.27,0,0,0,7.28.57,18.28,18.28,0,0,0,3.1-2.23c.75-.7,1.18-.56,1.53.43a8.51,8.51,0,0,1,.36,1.14c.22,1.08,1.11,1.2,2,1.46s.8-.48,1.12-.79a4.68,4.68,0,0,0,1.28-3.25,67.33,67.33,0,0,0,0-8.29c0-.55-.33-1.24.61-1.41a1.6,1.6,0,0,1,2,1.15c.25,1.49.31,3,.66,4.47a6.85,6.85,0,0,1,.24,3.18,6.84,6.84,0,0,0,.49,3.83,2.33,2.33,0,0,0,2.24,1.67c1,.05,1.25-.78,1.6-1.51a19.91,19.91,0,0,0,.51-2.56c.09-.28-.15-.74.25-.82s.49.45.63.73c1.66,3.33,7.27,6.21,10.75,2.92,1.1-1,1.33-.82,2,.61.83,1.85,1.66,3.73,3.54,4.79,1.33.75,2.12.51,2.8-.84a19.68,19.68,0,0,0,.78-2.1,1.46,1.46,0,0,0-.68-2,5.25,5.25,0,0,1-2-2.84,20.8,20.8,0,0,0-2.7-5.78,4.71,4.71,0,0,1-1.11-2.09c-.42-2.9-.85-5.8-1.2-8.72-.19-1.59-.89-2.41-2.32-2.47-1,0-2.89,1.41-2.82,2.44s-.39,1-1.06,1.18a8.38,8.38,0,0,0-5.58,5.1C473.07,429.43,472.57,430.58,472,432ZM359.78,406.85c-.34,1.25.49,2.6.73,4,.41,2.4.92,4.75,2.77,6.64a1.82,1.82,0,0,0,2.49.48,17.26,17.26,0,0,0,2.21-1.61,1.29,1.29,0,0,0,.54-1.14c-.18-2.42-.17-4.87-.58-7.25-.61-3.57-1.19-7.14-1.81-10.7a1.19,1.19,0,0,1,.11-.88,6.48,6.48,0,0,0,.57-4.92c-.36-1.33-.67-2.64-2.34-2.91-.4-.07-.55-.43-.62-.8a27.37,27.37,0,0,1-.48-2.79,22.23,22.23,0,0,0-3.51-9.93,52.23,52.23,0,0,0-4.58-5.94,48,48,0,0,0-5.68-6.39c-.16-.14-.32-.51-.55-.27-.62.66-1.52.64-2.23,1a2.29,2.29,0,0,0-.84,3.05c.24.47.64.87.47,1.53a16.5,16.5,0,0,1-1.26,3.82c-1.81,3.26-2.67,6.91-4.46,10.17a61.82,61.82,0,0,0-2.56,6.53c-.16.4-.26.89-.83.89-.87,0-1.73.18-2.61.18-1.31,0-2.33-.73-3.52-1s-1.93.21-2,1.51c0,1.05.45,2.06.43,3,0,2.66.88,2.83,3.32,3.16,1.07.15.91.43.64,1.17-.45,1.23-1.53,2-2.08,3.17a55,55,0,0,1-5.21,8.94c-1,1.39-1,1.44.23,2.64a4.06,4.06,0,0,0,5.93-.06,16.42,16.42,0,0,0,2.74-4,79.65,79.65,0,0,1,5.89-10.78,2.06,2.06,0,0,1,1.89-1.1c1.66,0,3.32,0,5,0,2.85,0,5.69-.37,8.53.3a1.4,1.4,0,0,1,1.27,1.19,17.72,17.72,0,0,0,1.27,4.19A9.1,9.1,0,0,1,359.78,406.85Zm8.2-43.51c-1-.39-2,.51-3.08.57a.74.74,0,0,0-.45,1.21,19.79,19.79,0,0,1,2.43,6c1,4.07,2.56,8,3.67,12,.65,2.38,1.76,4.59,2.44,6.95a65.41,65.41,0,0,1,2,9.52c.55,4.29,1.78,8.5,1.63,12.87a6.66,6.66,0,0,0,1.1,3.57,1,1,0,0,0,1.06.58,7.36,7.36,0,0,0,5.34-3.19,34.26,34.26,0,0,0,2.72-5.41,44.61,44.61,0,0,1,5-8.75,63.51,63.51,0,0,0,4.88-6.42c1.15-2,2.7-3.64,3.92-5.56,3.08-4.86,6.05-9.77,8.84-14.81.76-1.37,0-2.18-.43-3.14-.39-.79-1.3-.64-2-.72a2,2,0,0,0-1.16.1c-.7.41-1.55-.38-2.11.24-1.19,1.31-2.32,2.68-3.43,4.06a27.85,27.85,0,0,0-2.82,5,42.69,42.69,0,0,1-2.77,5.11c-2.36,3.39-4.86,6.68-7.21,10.09a37.82,37.82,0,0,1-3.78,4.45c-.32.34-.63,1.12-1,1s-.49-1-.59-1.59c-.42-2.3-.75-4.62-1.27-6.89-.42-1.81-1.16-3.55-1.6-5.35-.82-3.34-1.58-6.69-2.64-10s-2.93-6.4-3.76-9.85a2.32,2.32,0,0,0-1.42-1.35C370.31,363.07,369.2,363.32,368,363.34Zm50.81,43.95a4.86,4.86,0,0,1-.14-1.29,61.14,61.14,0,0,0,.36-6.9c.29-5.87-.23-11.76.31-17.64a36.53,36.53,0,0,0-.78-10.79c-.17-.82,0-1.19.74-1.5,2.69-1.08,4.48-5.43,2.31-8.23-1.24-1.6-3.21-2.36-4.82-3.56a3.05,3.05,0,0,0-2.85-.36c-2.08.49-3.44,1.85-5,3a5.64,5.64,0,0,0-1.82,1.86c-.15.28-.37.52-.22.87a15.56,15.56,0,0,0,3.17,5c.67.65,1.73,1.2,1.8,2.21a44.58,44.58,0,0,1,.09,8,17.77,17.77,0,0,0-.17,3.34,78.44,78.44,0,0,1,.3,10.65c-.25,4.14-.44,8.28-.32,12.42a45,45,0,0,1-.74,10.3c-.07.35-.21.8-.06,1,.82,1.42,1.78,2.74,3.53,3.1,1.46.3,3.51-.79,3.7-2,.07-.45-.09-.93,0-1.38A65.71,65.71,0,0,0,418.78,407.28ZM419.3,434c1.31.17,1.78-1.09,2.7-1.56,1.76-.9,1.69-2.57,1.63-4.07a9.06,9.06,0,0,0-2.29-5.26c-.92-1.13-1.76-2.62-3.55-2.53a12.58,12.58,0,0,0-3.22.55c-2.29.74-3.55,2.54-4.38,4.69-.11.29-.11.79-.38.82-1,.12-1.31,1-1.83,1.63a2.22,2.22,0,0,0,1.09,3.78c1.24.31,1.47,1.05,1.6,2.14.35,3,1.47,5.49,4.35,6.92,2.22,1.1,4.39,1.31,6.54-.08,2.33-1.5,2.52-1.94,1.78-3.68-.64-1.49-1.78-1.85-3.21-1a2.54,2.54,0,0,1-3.72-1.86c-.08-.63.14-.91.78-.81Zm-22.68,2.27a3,3,0,0,0,1.7,2.73c2.62,1.72,5.62,2.77,8.25,4.5a1.24,1.24,0,0,0,1.57-.12c.76-.76,1.5-1.54,2.25-2.31s.55-1.29-.21-1.87a44.64,44.64,0,0,0-7-4c-.74-.37-.91-.87-.65-1.39.59-1.19.7-2.51,1.27-3.7a42.4,42.4,0,0,0,3.4-9.84,2.1,2.1,0,0,0-2.09-2.67,4.08,4.08,0,0,0-3.36,2.83,62.93,62.93,0,0,1-3.36,9.9A23.73,23.73,0,0,0,396.62,436.24Zm76.84-61.75a4.68,4.68,0,0,0,2.41-.29c1.12-.3,1.57-1.4,2.25-2.18.35-.41-.26-1.15-.54-1.71a38,38,0,0,1-2.34-5.19,5.51,5.51,0,0,0-3.29-3.61c-2-.77-4.1-.72-6.14-1.21-1.81-.43-2.82.4-3.59,2.19-.12.29-.37.53-.48.82-.34,1-1,1.9-.36,3.05a4.75,4.75,0,0,0,5,2.26c2.19-.37,2.23-.37,2.78,1.7.12.44.41.75.53,1.18C470.31,373.75,471.08,374.35,473.46,374.49ZM333.77,320.56c0-.37-.38-.43-.95-.29-1.88.46-3.44,1.65-5.22,2.33-.76.29-1.15,1-1.79,1.41a.42.42,0,0,0-.11.54c0,.07.25.16.28.14.84-.81,2.16-.66,3-1.45a1.35,1.35,0,0,1,1.06-.41c1.1.06,2-.61,2.92-1C333.48,321.61,333.53,321,333.77,320.56Zm109.18,3.28c-.59-.19-1.14-.57-1.87-.18.35.45.21,2,1.26.4C442.44,323.92,442.8,324.13,442.95,323.84Z" transform="translate(-239.26 -131.98)"/><path class="cls-2" d="M467.36,208.86a73.77,73.77,0,0,0,4.13,8.91c2.32,4.63,4.81,9.3,3.93,14.79a54.34,54.34,0,0,1-1.92,7.86c-.74,2.33-1.43,4.67-2,7.07-.47,2.07-1.23,4.09-1.66,6.18a14,14,0,0,0-.38,2.35c-.07,2.08-.95,4-1.31,6-.48,2.67-1,5.33-1.65,8-.76,3.2-1.17,6.48-2.35,9.59-.63,1.66-.79,3.46-1.39,5.16A103.16,103.16,0,0,1,456.51,299c-1.18,2.19-2.66,4.22-4,6.33a1.91,1.91,0,0,0-.14.55,27.8,27.8,0,0,0-2.53,3.59,138.63,138.63,0,0,1-8.95,11.16c-1.23,1.23-2.54,2.39-3.66,3.72-2,2.36-4.62,3.9-7.08,5.64-2.92,2.07-6.18,3.6-9,5.77-1.58,1.21-3.23,2.31-4.84,3.46a9.75,9.75,0,0,1-4.06,1.6,51.18,51.18,0,0,1-11.06.73c-2.54-.09-4.92.44-6.13,3a2.1,2.1,0,0,1-1.83,1.45,1.69,1.69,0,0,1-1-.14,22.29,22.29,0,0,0-4.18-1.32,8,8,0,0,1-3.57-2.09c-1.38-1.4-3-2.51-4.44-3.81-3.35-3-7.39-4.69-11.42-6.46-4.2-1.85-8.5-3.48-12.64-5.47-.82-.39.25-1.56-.69-1.23-.54.19-.93.55-1.47.18a10.61,10.61,0,0,0-1.76-.69c-1.37-.71-2.74-1.4-4.1-2.14a51.2,51.2,0,0,1-9-6.61c-1.53-1.72-3.1-3.41-4.6-5.16-4.13-4.84-8.41-9.58-11.9-14.92a56.62,56.62,0,0,1-4.1-8.19A75.71,75.71,0,0,1,314.59,276a50.29,50.29,0,0,1-1.82-13.21c.1-7.66,0-15.33.7-23A76.05,76.05,0,0,1,318.73,218c3-7.34,6.36-14.53,9.17-22,1.13-3,3.17-5.5,5-8.09a51.09,51.09,0,0,1,10.19-10.38,54.46,54.46,0,0,1,7.66-5.28,29.36,29.36,0,0,1,10.42-3A20.14,20.14,0,0,0,366,167.9c5.24-2.07,10.74-3.43,15.9-5.7a10.07,10.07,0,0,1,4.9-1.16c1.38.1,2.4-1,3.63-1.35a2.39,2.39,0,0,1,2.9,1.14c.18.35.32.72.52,1.07A3.61,3.61,0,0,0,397,164c2.81.16,5.59,1.06,8.41.9,4.87-.27,9.25,1.72,13.84,2.68a10.94,10.94,0,0,0,1.88.34,11.62,11.62,0,0,1,4.8,1.22c4.69,2.25,9.47,4.3,14.15,6.54a59.05,59.05,0,0,1,7.75,4.92c1.11.77,2.24,1.51,3.36,2.27,2.7,1.83,4.52,4.48,6.47,7,.36.46.6,1,1.21,1.28a1.49,1.49,0,0,0,.42,1c1.9,2.86,3.85,5.67,4.87,9C464.93,203.83,466.51,206.21,467.36,208.86ZM429.65,325.23l0,0c.27.2.42-.07.6-.17,2.72-1.59,4.63-4.06,6.8-6.24,1.21-1.21,2.62-2.29,3.34-3.93,1.17-1.55,2.61-2.87,3.72-4.48,1.81-2.66,3.95-5.09,5.46-8a30.36,30.36,0,0,1,2.31-3.91,34.7,34.7,0,0,0,3.7-7c.84-1.93,1.58-3.9,2.36-5.86a29.35,29.35,0,0,0,1.89-5c.57-2.93,1.43-5.77,2.2-8.63.36-1.33.53-2.7.81-4,.7-3.42,1.63-6.8,2.58-10.16.76-2.69,1-5.47,1.71-8.16,1.38-5.27,2.87-10.51,4.28-15.77a15,15,0,0,0-.13-8.63,65.61,65.61,0,0,0-4.46-9.64c-1.47-2.87-2.68-5.84-3.87-8.83a15.13,15.13,0,0,0-1.85-4.1c-.95-1.35-1-3.12-2.16-4.39,0-.36-.29-.56-.41-.85a45.43,45.43,0,0,0-4.2-6.75,9.83,9.83,0,0,0-2.75-3.39c-1.56-1.24-3.21-2.35-4.8-3.55a47.37,47.37,0,0,0-7.72-5.18c-2.32-1.12-4.68-2.18-7-3.22a34.53,34.53,0,0,0-4.76-2.13,14.82,14.82,0,0,0-3.72-1.11c-2.15-.33-4.15-1.48-6.43-1.33a.65.65,0,0,1-.43-.13,8.74,8.74,0,0,0-3.41-1.44,20.9,20.9,0,0,0-5.71-.81c-1.15,0-2.3-.05-3.46-.19-2.8-.33-5.58-1-8.43-.71a1.48,1.48,0,0,1-.92-.2c-.78-.53-1.33-.34-2,.31a4.1,4.1,0,0,1-4.39.68,7.56,7.56,0,0,0-2.18-.34.86.86,0,0,1-1-.31c-.6-2.48-.75-2.56-2.64-1.49-2.57.69-5.23,1-7.67,2.2A37,37,0,0,1,362,171.89,25.55,25.55,0,0,0,348.66,177q-3.28,2.44-6.35,5.12a46.26,46.26,0,0,0-11.2,14.5c-2.58,5.26-4.43,10.85-6.9,16.16a133.15,133.15,0,0,0-5,12.57c-2.12,6.09-2.59,12.47-3.15,18.83-.34,3.91,0,7.84-.3,11.74a64.58,64.58,0,0,0,.7,15.63,74.58,74.58,0,0,0,3.31,12.47,55.63,55.63,0,0,0,8.4,15.53c1.21,1.56,2.53,3,3.72,4.61a104.55,104.55,0,0,0,8,9.17,34.72,34.72,0,0,0,10.28,7.19c1.46.7,3.07,1.11,4.46,1.91a125.62,125.62,0,0,0,12.14,5.65c2.42,1.07,4.94,2,7.27,3.21,3.75,2,7.6,3.87,10.8,6.81,1.29,1.18,2.51,2.53,4.39,3,1.17.27,2.1.34,2.71-.9a1.55,1.55,0,0,1,.61-.54,14.29,14.29,0,0,1,7.63-1.79c3.26,0,6.53.13,9.72-.72a28.57,28.57,0,0,0,7.77-4.33c.54-.4,1.34-.53,1.55-1.33a7.66,7.66,0,0,1,2-1.09,10.43,10.43,0,0,0,3.42-1.82c.64-.39,1.49-.56,1.78-1.4.47,0,.63-.47,1-.57A2.81,2.81,0,0,0,429.65,325.23Z" transform="translate(-239.26 -131.98)"/><path class="cls-2" d="M507.54,434.53c.05-1,.11-1.66.11-2.31a11.29,11.29,0,0,1,2.67-7.55,6.12,6.12,0,0,1,2.61-1.7,9.39,9.39,0,0,1,6-.23,3.87,3.87,0,0,1,2.6,2.65,1.6,1.6,0,0,0,.9,1.15,1.79,1.79,0,0,1,.95,1.78,7.2,7.2,0,0,1-.26,1.88,20.26,20.26,0,0,1-2.15,5.37,1.9,1.9,0,0,1-2.11.9,16.48,16.48,0,0,1-4.67-1.68c-.52-.26-1.16-.68-1.57,0a1.54,1.54,0,0,0,.35,1.86,12.68,12.68,0,0,0,2.92,1.77,13.59,13.59,0,0,0,5.68,2c.24,0,.54.12.71,0,1.39-.9,2.26.48,3.36.78.42.11.45.79.3,1.29a7.05,7.05,0,0,1-2.19,3.35c-.67.59-1.56.35-2.27.26a18.5,18.5,0,0,1-9-3.18.91.91,0,0,0-.2-.12c-1.88-.73-1.57-1.27-2.26.93A4.82,4.82,0,0,1,508.6,446a1.18,1.18,0,0,1-1.92-.21,8.55,8.55,0,0,1-1.51-2.92,6.36,6.36,0,0,0-.5-1.33,1.71,1.71,0,0,0-1.9-1c-1.76.13-3.49.76-5.32.37-3.69-.79-4.16-2.1-4.91-5.16a24.44,24.44,0,0,1-.6-6.18,8.74,8.74,0,0,1,5.79-7.84c1.45-.58,3-1.13,4.62-.58.46.15.66-.28.63-.66a10.75,10.75,0,0,0-.3-2.34c-.74-2.48-.85-2.37-4.38-2.69-4.62-.43-9.32-.54-13.69-2.4a88.89,88.89,0,0,1-8.21-4,18.11,18.11,0,0,1-6-4.94,7.26,7.26,0,0,1-.86-2.82c-.19-.77,1.09-1.49,2.5-1.38a2.75,2.75,0,0,0,1.44-.31,3.26,3.26,0,0,1,4,1,9.83,9.83,0,0,0,5.46,4.08c2.56.92,5,2.13,7.49,3.27a11.36,11.36,0,0,0,5,1.14,42.14,42.14,0,0,1,6.35.72,5.43,5.43,0,0,0,5.66-2.62,42.13,42.13,0,0,0,4.39-10.32c1.15-4-.89-6.92-3.72-9.46a8.14,8.14,0,0,0-4.47-1.7c-2.28-.37-4.57-.53-6.86-.73-3.27-.29-6.57.16-9.8-.54-4.85-1-7.61-5.36-5-10.17a30.39,30.39,0,0,1,4.43-6.91c3-3.12,6.27-5.7,11.05-5.18a32.36,32.36,0,0,1,6.47.91c1,.33,1.7,1.21,2.63,1.57,1.67.65,1.48,1.75,1.17,3.12-.4,1.75-2.77,3.5-4.51,3.09-2-.47-3.92-1-5.88-1.54a2.33,2.33,0,0,0-2.64.78,48.06,48.06,0,0,0-4.72,5.69,6.36,6.36,0,0,0-.45.69c-.82,1.81-.55,2.17,1.41,2.32,3.57.28,7.12.79,10.7,1a27.62,27.62,0,0,1,13,4.12c2.78,1.73,3.87,4.37,4.31,7.46.31,2.22.24,4.45.39,6.68.08,1.14-.53,2.32-.61,3.49-.23,3.53-1.76,6.6-3.3,9.67-1.06,2.1-3.09,2.74-5.14,3.33-.76.22-1.5.51-2.25.78-.36.13-.64.33-.52.8,1.09,4.16-.08,8.16-.94,12.17A9.76,9.76,0,0,0,507.54,434.53Zm-7.85.88c.28,0,.76-.09,1.23-.17a.86.86,0,0,0,.8-1.09,24.74,24.74,0,0,1,.16-6c.2-1.66-.17-2.13-1.85-1.93-2.65.32-4,1-3.54,4.21a20.4,20.4,0,0,0,.59,3.15C497.53,435.19,497.87,435.47,499.69,435.41Zm18-6.9a.92.92,0,0,0-.86-1,7.08,7.08,0,0,0-2.58.21.45.45,0,0,0-.38.39c-.05.33.23.39.43.46a17.61,17.61,0,0,1,2.44.79C517.63,429.8,517.68,429.36,517.7,428.51Z" transform="translate(-239.26 -131.98)"/><path class="cls-2" d="M434.56,363.84c3.49.26,7,.23,10.48.28,2,0,3.73,1,5.43,2a62.43,62.43,0,0,0,6.33,2.72c4.32,1.76,7.75,4.43,9.63,8.81,1,2.25,2,4.48,3,6.71a9.49,9.49,0,0,1,.21,6.84q-2.31,7.73-5.32,15.23c-1.63,4-4.64,6.1-8.49,7.35A73.55,73.55,0,0,1,440.41,417a10,10,0,0,1-3.55-.2c-.38-.1-.8-.3-1,.21a3,3,0,0,1-3.68,1.45,18,18,0,0,0-6.83-.9c-1.72.14-2.27-1.24-1.54-2.81a4.49,4.49,0,0,1,4.11-2.85c.72,0,1-.47,1-1.21,0-2.68-.4-5.32-.45-8a40.32,40.32,0,0,1,.46-5.81q.47-3.78.92-7.56c.38-3.2.8-6.4,1.12-9.6a35.79,35.79,0,0,0-.26-8.34,3.94,3.94,0,0,1-.08-.83c.08-1-.15-1.61-1.29-1.72-1-.1-1.2-1-1.33-1.77a2.08,2.08,0,0,1,.51-1.9c1.3-1.52,3-.87,4.52-1.27A6.21,6.21,0,0,1,434.56,363.84ZM437,407.74c0,.72,0,1.44,0,2.15,0,.32,0,.69.43.72,2.39.17,4.76.94,7.17-.15a8,8,0,0,1,4.62-.91c3.44.59,5.51-1.7,7.63-3.69,1.55-1.45,1.79-3.66,2.45-5.61.47-1.38-.2-2.85.47-4.22.42-.85.64-1.8,1-2.67.93-2.12,1.1-4.45,1.88-6.61a1.84,1.84,0,0,0-.48-2.13,13.71,13.71,0,0,1-3.38-5.13,8.35,8.35,0,0,0-4.71-5.24,40.41,40.41,0,0,0-10.49-3c-1.52-.25-3-.86-4.58-.7-.77.08-1.12.24-1.08,1.13a46.35,46.35,0,0,1,.09,6.57,68.26,68.26,0,0,0-.27,8.25,27.71,27.71,0,0,1-.05,5.49,19.68,19.68,0,0,0-.43,3.3C437.31,399.45,436.76,403.59,437,407.74Z" transform="translate(-239.26 -131.98)"/><path class="cls-2" d="M286.32,407.7c0-1.82-.12-3.66,0-5.47.28-3.66-.46-7.23-.69-10.84-.21-3.27.08-6.55-.22-9.82-.09-1-.14-2-.32-3-.53-2.85.1-5.63.42-8.44.21-1.84-.36-2.36-2.19-1.93-1,.25-2.1.46-3.13.75-.78.22-1.55,0-1.69-.66s-1.24-1.6.16-2.28c.33-.16.59-.52,1-.63,3.37-.9,6.65-2.08,10.25-.67,1.84.72,3.95.78,5.92,1.19,2.67.56,4.82,2.17,7,3.63,1.89,1.24,3.79,2.47,5.68,3.71,3.29,2.14,5.53,5.28,7.84,8.4,1.92,2.6,2.73,5.59,3.84,8.5.43,1.14.74,2.35,1.19,3.48,1.11,2.83-.12,5.56-.15,8.32a46,46,0,0,1-.62,4.71,4.77,4.77,0,0,1-2.54,3.9c-4.24,2.38-8.85,3.82-13.41,5.39a19.56,19.56,0,0,1-5.45.58,48.34,48.34,0,0,0-4.85.63,23.59,23.59,0,0,1-4,0,23.26,23.26,0,0,0-3.06.36,18.28,18.28,0,0,1-6,.1,1.19,1.19,0,0,0-.68.17c-.8.39-1.11,0-1.39-.71a12.73,12.73,0,0,1-.43-4.25c0-.51.23-.66.64-.58,1.76.32,3.52-.53,5.3.05.79.26,1.37,0,1.31-1.05s0-2.4,0-3.6Zm28.61-11a12.94,12.94,0,0,0-2.75-8.77,62,62,0,0,1-4.47-6,15.44,15.44,0,0,0-5.6-5.55,12.33,12.33,0,0,1-3.23-2c-1.74-1.81-4.25-1.78-6.31-2.81-.38-.19-.78-.08-.76.53,0,1.16,0,2.32.08,3.47a90,90,0,0,1,.88,10.8,58.2,58.2,0,0,0,.07,7.39c.39,3.44.63,6.89.9,10.34.16,2.12,1,4.21.28,6.38-.19.61.2.75.75.68a35.62,35.62,0,0,1,5.85.08c2.55.1,4.93-.43,6.64-2.53a26.72,26.72,0,0,1,3.22-3.17c1.34-1.18,3-2.06,3.49-4A20.56,20.56,0,0,0,314.92,396.68Z" transform="translate(-239.26 -131.98)"/><path class="cls-2" d="M472,432c.56-1.39,1.06-2.54,1.5-3.71a8.38,8.38,0,0,1,5.58-5.1c.67-.22,1.12-.24,1.06-1.18s1.78-2.49,2.82-2.44c1.44.07,2.13.89,2.32,2.47.35,2.91.78,5.81,1.2,8.72a4.71,4.71,0,0,0,1.11,2.09,20.8,20.8,0,0,1,2.7,5.78,5.25,5.25,0,0,0,2,2.84,1.46,1.46,0,0,1,.68,2,19.68,19.68,0,0,1-.78,2.1c-.68,1.35-1.47,1.59-2.8.84-1.88-1.07-2.72-2.95-3.54-4.79-.64-1.44-.87-1.66-2-.61-3.48,3.3-9.09.41-10.75-2.92-.14-.28-.13-.83-.63-.73s-.16.54-.25.82a19.91,19.91,0,0,1-.51,2.56c-.35.73-.59,1.56-1.6,1.51a2.33,2.33,0,0,1-2.24-1.67,6.84,6.84,0,0,1-.49-3.83,6.85,6.85,0,0,0-.24-3.18c-.36-1.46-.42-3-.66-4.47a1.6,1.6,0,0,0-2-1.15c-.94.16-.66.85-.61,1.41a67.33,67.33,0,0,1,0,8.29,4.68,4.68,0,0,1-1.28,3.25c-.32.32-.33,1-1.12.79s-1.73-.37-2-1.46a8.51,8.51,0,0,0-.36-1.14c-.35-1-.78-1.14-1.53-.43a18.28,18.28,0,0,1-3.1,2.23,6.27,6.27,0,0,1-7.28-.57c-.73-.63-1.18-.65-1.59.32-.3.72-.63,1.61-1.57,1.61a2.22,2.22,0,0,1-2.06-1.73,7.86,7.86,0,0,1-.34-4.36,20.73,20.73,0,0,0,.08-8c-.19-1.09-.85-1.44-1.89-1.16l-.23.07c-2.72.84-2.86,1.1-2.07,4.54a7.5,7.5,0,0,1-.58,5.49c-.8,1.44-1.9,1.45-2.88.1a6.47,6.47,0,0,1-1.18-3.7c0-1.74-.72-3.35-.79-5.07,0-.43-.29-1-.84-.71s-1.54.17-1.38,1.13a15.47,15.47,0,0,0,.91,3.38,8.87,8.87,0,0,1,.29,4.49,4.82,4.82,0,0,1-.62,2.51c-.37.5-.53,1.27-1.33,1.16a2.13,2.13,0,0,1-1.78-1.39,22.79,22.79,0,0,1-.62-3.86c-.44-2.21-1.11-4.36-1.64-6.55a19.75,19.75,0,0,1-.69-4.45,2.68,2.68,0,0,1,1.13-2.5,2.21,2.21,0,0,1,2.77.41,1.77,1.77,0,0,0,2.34.24,3.85,3.85,0,0,1,3.77.17,2.2,2.2,0,0,0,2.23.07,14.55,14.55,0,0,1,2.89-1c3.33-.62,5.42.08,6.49,3.48.15.47.09,1.24.61,1.3s.73-.66.91-1.14c.91-2.4,2.91-3.46,5.14-4.21,1-.36,2,.19,3,.51a2.9,2.9,0,0,1,.94.52c1,.86,1.79,1,2.54-.43a2,2,0,0,1,3-.15,3.13,3.13,0,0,0,2.64.94,12.5,12.5,0,0,1,4.69,1.22,2.74,2.74,0,0,1,1.46,2.41c.2,1.74.35,3.48.54,5.22A3.33,3.33,0,0,0,472,432Zm-22.14-.51a9.69,9.69,0,0,0,.76,4.39c.09.21.13.42.42.51,1.35.43,4-1.44,4-2.85a28.84,28.84,0,0,0-1-5.81,1.11,1.11,0,0,0-1.12-.91,1.73,1.73,0,0,0-1.64.79C450.52,429,449.72,430.38,449.87,431.47Zm27.05.67a9.81,9.81,0,0,0,0,1,4.48,4.48,0,0,0,3,3.75c1,.27,1.58-.38,2.23-.84a.87.87,0,0,0,.34-1.16c-1-1.78-1.06-3.81-1.45-5.73-.2-1-.64-1-1.39-.91C478,428.6,476.89,430.06,476.92,432.14Z" transform="translate(-239.26 -131.98)"/><path class="cls-2" d="M359.78,406.85a9.1,9.1,0,0,0-.71-4.82,17.72,17.72,0,0,1-1.27-4.19,1.4,1.4,0,0,0-1.27-1.19c-2.83-.67-5.67-.32-8.53-.3-1.65,0-3.31,0-5,0a2.06,2.06,0,0,0-1.89,1.1,79.65,79.65,0,0,0-5.89,10.78,16.42,16.42,0,0,1-2.74,4,4.06,4.06,0,0,1-5.93.06c-1.21-1.2-1.27-1.24-.23-2.64a55,55,0,0,0,5.21-8.94c.56-1.15,1.63-1.94,2.08-3.17.27-.74.43-1-.64-1.17-2.44-.34-3.36-.51-3.32-3.16,0-1-.45-2-.43-3,0-1.3.63-1.79,2-1.51s2.21,1,3.52,1c.89,0,1.74-.18,2.61-.18.56,0,.66-.49.83-.89a61.82,61.82,0,0,1,2.56-6.53c1.8-3.26,2.66-6.92,4.46-10.17a16.5,16.5,0,0,0,1.26-3.82c.17-.66-.23-1.05-.47-1.53a2.29,2.29,0,0,1,.84-3.05c.71-.4,1.61-.38,2.23-1,.23-.24.38.13.55.27a48,48,0,0,1,5.68,6.39,52.23,52.23,0,0,1,4.58,5.94,22.23,22.23,0,0,1,3.51,9.93,27.37,27.37,0,0,0,.48,2.79c.07.37.21.74.62.8,1.67.27,2,1.58,2.34,2.91a6.48,6.48,0,0,1-.57,4.92,1.19,1.19,0,0,0-.11.88c.62,3.56,1.2,7.14,1.81,10.7.41,2.38.4,4.83.58,7.25a1.29,1.29,0,0,1-.54,1.14,17.26,17.26,0,0,1-2.21,1.61,1.82,1.82,0,0,1-2.49-.48c-1.85-1.89-2.36-4.23-2.77-6.64C360.26,409.45,359.44,408.1,359.78,406.85Zm-3.66-19.75a47.45,47.45,0,0,0-2-8.31,7.06,7.06,0,0,0-1.48-3.08c-.47-.49-.78-.52-1,.15a95,95,0,0,1-5.53,12.2c-.42.83-.22,1.08.64,1a41.31,41.31,0,0,1,7.86.11C356.09,389.22,356.21,389.15,356.12,387.1Z" transform="translate(-239.26 -131.98)"/><path class="cls-2" d="M368,363.34c1.23,0,2.34-.27,3.41.26a2.32,2.32,0,0,1,1.42,1.35c.83,3.45,2.68,6.49,3.76,9.85s1.82,6.64,2.64,10c.44,1.81,1.18,3.54,1.6,5.35.52,2.27.85,4.59,1.27,6.89.1.58.06,1.38.59,1.59s.72-.62,1-1a37.82,37.82,0,0,0,3.78-4.45c2.35-3.41,4.85-6.69,7.21-10.09a42.69,42.69,0,0,0,2.77-5.11,27.85,27.85,0,0,1,2.82-5c1.11-1.38,2.24-2.75,3.43-4.06.56-.61,1.41.18,2.11-.24a2,2,0,0,1,1.16-.1c.73.08,1.63-.07,2,.72.47,1,1.18,1.78.43,3.14-2.79,5-5.76,9.95-8.84,14.81-1.22,1.92-2.77,3.61-3.92,5.56a63.51,63.51,0,0,1-4.88,6.42,44.61,44.61,0,0,0-5,8.75,34.26,34.26,0,0,1-2.72,5.41,7.36,7.36,0,0,1-5.34,3.19,1,1,0,0,1-1.06-.58,6.66,6.66,0,0,1-1.1-3.57c.15-4.37-1.07-8.58-1.63-12.87a65.41,65.41,0,0,0-2-9.52c-.67-2.36-1.79-4.57-2.44-6.95-1.11-4-2.64-7.95-3.67-12a19.79,19.79,0,0,0-2.43-6,.74.74,0,0,1,.45-1.21C366,363.85,366.93,362.94,368,363.34Z" transform="translate(-239.26 -131.98)"/><path class="cls-2" d="M418.78,407.28a65.71,65.71,0,0,1-.63,8.12c-.07.45.1.93,0,1.38-.19,1.18-2.23,2.27-3.7,2-1.75-.36-2.71-1.68-3.53-3.1-.15-.25,0-.7.06-1a45,45,0,0,0,.74-10.3c-.12-4.15.07-8.29.32-12.42a78.44,78.44,0,0,0-.3-10.65,17.77,17.77,0,0,1,.17-3.34,44.58,44.58,0,0,0-.09-8c-.07-1-1.13-1.55-1.8-2.21a15.56,15.56,0,0,1-3.17-5c-.16-.35.07-.59.22-.87A5.64,5.64,0,0,1,408.9,360c1.56-1.13,2.92-2.49,5-3a3.05,3.05,0,0,1,2.85.36c1.6,1.19,3.58,2,4.82,3.56,2.17,2.8.38,7.15-2.31,8.23-.78.31-.91.68-.74,1.5a36.53,36.53,0,0,1,.78,10.79c-.54,5.88,0,11.77-.31,17.64a61.14,61.14,0,0,1-.36,6.9A4.86,4.86,0,0,0,418.78,407.28Z" transform="translate(-239.26 -131.98)"/><path class="cls-2" d="M419.3,434l-2.11-.33c-.64-.1-.86.18-.78.81a2.54,2.54,0,0,0,3.72,1.86c1.43-.84,2.57-.48,3.21,1,.74,1.74.55,2.17-1.78,3.68-2.15,1.39-4.33,1.18-6.54.08-2.88-1.43-4-3.94-4.35-6.92-.13-1.08-.36-1.82-1.6-2.14a2.22,2.22,0,0,1-1.09-3.78c.52-.63.81-1.51,1.83-1.63.27,0,.27-.53.38-.82.83-2.15,2.09-3.95,4.38-4.69a12.58,12.58,0,0,1,3.22-.55c1.78-.09,2.63,1.4,3.55,2.53a9.06,9.06,0,0,1,2.29,5.26c.06,1.5.13,3.17-1.63,4.07C421.08,432.89,420.61,434.14,419.3,434Zm-3.63-7.09c-.13,1.06.7.89,1.25,1,.21,0,.65.13.52-.35a1.75,1.75,0,0,0-1.35-1.48C415.42,426,415.79,426.62,415.67,426.88Z" transform="translate(-239.26 -131.98)"/><path class="cls-2" d="M396.62,436.24a23.73,23.73,0,0,1,1.77-5.95,62.93,62.93,0,0,0,3.36-9.9,4.08,4.08,0,0,1,3.36-2.83,2.1,2.1,0,0,1,2.09,2.67,42.4,42.4,0,0,1-3.4,9.84c-.58,1.19-.69,2.51-1.27,3.7-.26.53-.09,1,.65,1.39a44.64,44.64,0,0,1,7,4c.76.57.92,1.15.21,1.87s-1.5,1.54-2.25,2.31a1.24,1.24,0,0,1-1.57.12c-2.63-1.73-5.62-2.78-8.25-4.5A3,3,0,0,1,396.62,436.24Z" transform="translate(-239.26 -131.98)"/><path class="cls-2" d="M473.46,374.49c-2.38-.14-3.15-.74-3.76-3-.12-.43-.41-.74-.53-1.18-.55-2.07-.59-2.07-2.78-1.7a4.75,4.75,0,0,1-5-2.26c-.61-1.15,0-2.07.36-3.05.1-.29.35-.53.48-.82.77-1.79,1.78-2.62,3.59-2.19,2,.49,4.19.44,6.14,1.21a5.51,5.51,0,0,1,3.29,3.61,38,38,0,0,0,2.34,5.19c.28.56.89,1.3.54,1.71-.67.78-1.13,1.88-2.25,2.18A4.68,4.68,0,0,1,473.46,374.49Z" transform="translate(-239.26 -131.98)"/><path class="cls-3" d="M440.9,320.62a138.63,138.63,0,0,0,8.95-11.16,27.8,27.8,0,0,1,2.53-3.59,9.61,9.61,0,0,1-.33,3.77c-.22.86-.12,1.51.94,1.62.88.09.95.94,1.16,1.48a1.27,1.27,0,0,1-.64,1.42c-.33.17-.48.33-.25.6.6.71.18,1.14-.37,1.56,0-.12,0-.27,0-.35a1.67,1.67,0,0,1,.41-2.67c.18-.13.08-.45-.12-.63s-.41-.14-.66-.09c-1.19.24-1.24,1.13-1.26,2.07,0,.43.55.95-.21,1.29-.08,0-.06.48,0,.67s.39.13.62,0c.4-.14.82-.24,1.23-.36a4.27,4.27,0,0,1-2.2,2.51,2.73,2.73,0,0,1-1.85.76c-.47-.05-.34.87-.11,1.28s.56.88-.06,1.17-1.15.14-1.3-.56-.6-.74-1.13-.8c-.22,0-.5.06-.56-.28s0-.44.35-.49c.48-.08.42-.49.26-.73s-.62-.16-.75.13-.37.23-.63.2c-.44,0-.82.3-.61.62.59.89-.31,1.23-.64,1.43a1,1,0,0,1-1.46-.54.47.47,0,0,0-.58-.3c-.43.12-.11.59-.36.8C440.9,321.32,441.29,320.8,440.9,320.62Zm11.44-8.6c0-.44-.2-.45-.45-.46s-.43.13-.43.42,0,.5.36.47A.52.52,0,0,0,452.35,312Z" transform="translate(-239.26 -131.98)"/><path class="cls-3" d="M467.36,208.86c-.86-2.65-2.43-5-3.23-7.67-1-3.38-3-6.18-4.87-9a1.49,1.49,0,0,1-.42-1,7.42,7.42,0,0,1,3.79,1.89,20.48,20.48,0,0,0,2.61,1.73,9.61,9.61,0,0,0,4.7,1.72c.66.06.84.72,1.42.93.43.15,0,.6-.23.8a.93.93,0,0,0,.06,1.66,5.73,5.73,0,0,1,2.25,2.49c-.68.66-1.14.92-1.84-.18a1.39,1.39,0,0,0-2.31-.12.7.7,0,0,1-.4.22c-.65.13-1.62.15-1.75.74-.25,1.18-.65,2.43.11,3.68C467.62,207.34,468,208.13,467.36,208.86Z" transform="translate(-239.26 -131.98)"/><path class="cls-3" d="M338.9,316.2a51.2,51.2,0,0,0,9,6.61c1.36.73,2.73,1.43,4.1,2.14-1.92-.53-3.89-.87-5.83-1.29-.63-.14-1,.25-1.51.21-1.07-.07-2-.84-3.09-.6-.35.08-.42-.36-.51-.57-.52-1.24-1.4-1.52-2.71-1.47-1,0-2-.43-3.08-.17-.48.12-.48-.79-.67-1.24s.26-.38.5-.4c.57,0,.36-.62.65-.89A30.94,30.94,0,0,1,338.9,316.2Z" transform="translate(-239.26 -131.98)"/><path class="cls-3" d="M333.77,320.56c-.24.43-.29,1-.81,1.26-1,.39-1.82,1.06-2.92,1a1.35,1.35,0,0,0-1.06.41c-.84.78-2.15.63-3,1.45,0,0-.25-.06-.28-.14a.42.42,0,0,1,.11-.54c.63-.42,1-1.12,1.79-1.41,1.78-.68,3.33-1.87,5.22-2.33C333.39,320.13,333.74,320.19,333.77,320.56Z" transform="translate(-239.26 -131.98)"/><path class="cls-3" d="M442.95,323.84c-.15.29-.51.08-.61.23-1,1.6-.92,0-1.26-.4C441.8,323.27,442.36,323.65,442.95,323.84Z" transform="translate(-239.26 -131.98)"/><path class="cls-3" d="M427.49,326.61c-.39.1-.56.61-1,.57-.16,0-.35-.07-.47,0q-2.36,1.42-4.69,2.89c-.06,0,0,.22,0,.33a7.67,7.67,0,0,0-2,1.09c-1.22.06-2,.95-3,1.48-2,1.08-3.66,2.75-5.89,3.46a.56.56,0,0,0-.41.72c-3.2.85-6.47.74-9.72.72a14.29,14.29,0,0,0-7.63,1.79,1.55,1.55,0,0,0-.61.54c-.61,1.24-1.54,1.17-2.71.9-1.87-.44-3.1-1.79-4.39-3-3.2-2.93-7-4.8-10.8-6.81-2.33-1.24-4.85-2.14-7.27-3.21a125.62,125.62,0,0,1-12.14-5.65c-1.39-.8-3-1.21-4.46-1.91a34.72,34.72,0,0,1-10.28-7.19,104.55,104.55,0,0,1-8-9.17c-1.19-1.58-2.51-3-3.72-4.61a55.63,55.63,0,0,1-8.4-15.53,74.58,74.58,0,0,1-3.31-12.47,64.58,64.58,0,0,1-.7-15.63c.29-3.9,0-7.83.3-11.74.56-6.36,1-12.74,3.15-18.83a133.15,133.15,0,0,1,5-12.57c2.48-5.31,4.33-10.9,6.9-16.16a46.26,46.26,0,0,1,11.2-14.5q3.07-2.69,6.35-5.12A25.55,25.55,0,0,1,362,171.89a37,37,0,0,0,12.87-3.45c2.44-1.15,5.11-1.51,7.67-2.2a5.16,5.16,0,0,0,2.64,1.49.86.86,0,0,0,1,.31c.34,1,.93,1.12,2.18.34a4.1,4.1,0,0,0,4.39-.68c.64-.64,1.18-.83,2-.31a1.48,1.48,0,0,0,.92.2c2.86-.3,5.63.39,8.43.71,1.16.13,2.31.14,3.46.19a20.9,20.9,0,0,1,5.71.81,8.74,8.74,0,0,1,3.41,1.44.65.65,0,0,0,.43.13c2.27-.15,4.27,1,6.43,1.33a14.82,14.82,0,0,1,3.72,1.11c-.1,1.53,1.4,2.11,2,3.25.15.29,1,.11,1.5-.14.09,0,.31.06.41.16a5.71,5.71,0,0,0,2.64,1.34c.91.23,1.64,1.07,2.62,1.51,1.65.74,3.3,1.57,4.91,2.42s3,1.42,4,2.83a1.31,1.31,0,0,0,1.3.58,1.26,1.26,0,0,1,1.59.83c.16.4.6,1,.94,1,1.35.07,1.79,1.25,2.67,1.88s1.29,1.72,2.47,1.83a45.41,45.41,0,0,1,4.2,6.75.89.89,0,0,1-.36.55.46.46,0,0,0,0,.79c.42.23.76.07.76-.49,1.12,1.27,1.22,3,2.16,4.39-.16.66-.87,1.37-.21,2a4.59,4.59,0,0,1,.91,1.31c.26.5.56.84,1.16.8,1.19,3,2.39,6,3.87,8.83a65.61,65.61,0,0,1,4.46,9.64,15,15,0,0,1,.13,8.63c-1.42,5.26-2.9,10.5-4.28,15.77-.71,2.69-.95,5.47-1.71,8.16-.95,3.36-1.88,6.74-2.58,10.16-.28,1.34-.45,2.71-.81,4-.77,2.87-1.63,5.71-2.2,8.63a29.35,29.35,0,0,1-1.89,5c-.78,2-1.52,3.93-2.36,5.86a34.7,34.7,0,0,1-3.7,7,30.36,30.36,0,0,0-2.31,3.91c-1.51,2.87-3.65,5.3-5.46,8-1.1,1.62-2.54,2.94-3.72,4.48-.23,0-.54-.09-.67.14a10.36,10.36,0,0,1-2,2.14c-2,2.07-4,4.2-6.2,6.1-.67.57-1.77.85-1.89,2l0,0A2.36,2.36,0,0,0,427.49,326.61Zm-57.68-41.88c-.27,1.95-.28,2,.77,4.09.3.61.24,1.4.89,1.82.45.3,1.11.53,1.18-.21A10,10,0,0,0,372,285c-1.26-2.4-1.35-5.26-3.13-7.42-.06-.08,0-.26-.06-.35-.66-1-.46-2.26-1-3.21a26.21,26.21,0,0,1-1.89-4.91c-.1-.31-.15-.51-.51-.49a.56.56,0,0,0-.61.46,2.88,2.88,0,0,0,0,1.07c.37,1.52,0,3.11.47,4.6s0,3,.18,4.44c.13,1,.25,1.92.33,2.88.1,1.25,1.07.63,1.56.81s.52-.54.48-1a2.21,2.21,0,0,0-.29-.77.3.3,0,0,1,.05-.41c.16-.15.27,0,.39.06.57.49,1.15,1,1.71,1.47s-.35,1-.23,1.57c0,.18-.46.15-.72-.17s-.62,0-.87.2a.55.55,0,0,0,0,.84C368.47,285.33,369.1,285.25,369.81,284.73ZM419,267.3a2.32,2.32,0,0,1-.14-.47c-.17-1.39-1.06-2.4-1.71-3.56-1.17-2.1-1.67-4.53-3.18-6.48-.28-.36-.32-.84-.67-1.29-.55-.71-1.5-1.26-1.56-2.45a3,3,0,0,0-1.1-1.94c-.49-.38-.79-.62-.76-1.26a14.24,14.24,0,0,0-.08-2c0-.51-.13-1.14-.79-1.06s-.89-.25-1-.74-.53-.53-.94-.52c-.79,0-.36.75-.63,1.1s.08.56.47.55c.23,0,.4.08.4.33,0,1.37,1.8,2,1.45,3.53a.45.45,0,0,0,0,.23c.46,1.26,1.72,2.22,1.42,3.78,0,.07.13.25.19.25.68-.09.63.42.85.84a24.8,24.8,0,0,0,1.13,2.54c.91,1.33,1.28,3,2.08,4.38a7.64,7.64,0,0,1,1.41,3.68c0,1,1,1.38.85,2.32,0,.19.31.19.5.17A2.69,2.69,0,0,0,419,267.3Zm-47.31,0c.1-1.32.14-2.57-.88-3.59-.18-.18-.23-.44-.56-.43s-.39.3-.4.58c0,.54-.1,1-.78,1.12-1.26.18-1.14,1.11-1.16,2,0,.72.77.42.94.9a27,27,0,0,0,1.93,4.27c.17.3.08.72.61.63s.31-.48.33-.76A31.29,31.29,0,0,0,371.7,267.33Zm52.37-2.13c0-.89.17-1.9-1.24-1.94-.1,0-.18-.23-.28-.35-.57-.71-1.13-.91-1.56.11-.14.34-.47.44-.71.57-1.11.64-.53,2-1.18,2.79-.09.11.14.4.34.41.56,0,.61.4.58.83s.14.39.42.45C422,268.35,424.5,267.24,424.07,265.2Zm-15.58,3.37c0,.44-.06.82.28,1.09a1.14,1.14,0,0,1,.45,1c-.06.89.34,1.33,1.28,1.19,1.14-.18,1.51-.63,1.3-1.64a22.2,22.2,0,0,0-1.3-2.87c-.41-1.14-.81-2.3-1.25-3.43-.33-.85-1-1.06-1.52-1.56-.24-.24-.5.12-.39.45.43,1.32,1.06,2.62.46,4.06,0,.08,0,.3.1.31C408.81,267.41,408.63,268,408.49,268.57Zm18.44-6.16c.3.58,0,1.39.55,1.73s1-.38,1.38-.69.31-1,.92-1.16a.43.43,0,0,0-.22-.65c-.3-.07-.33-.14-.26-.46.26-1-.95-2.31.48-3.21,0,0-.05-.28-.08-.44-.1-.63-.44-1.25.06-1.87a.31.31,0,0,0-.15-.49,1.27,1.27,0,0,0-.55,0c0,1-.67.39-1.05.4s-.8.17-.77.68c.05.91-.25,1.9.54,2.68a.55.55,0,0,1,0,.85C426.9,260.54,427.45,261.62,426.93,262.41Zm11.23-19c-.11.52-.29.89.07,1.06a1.22,1.22,0,0,0,1,0c.21-.1.18-.35.13-.53-.37-1.4-.66-2.81-1.09-4.2a57.49,57.49,0,0,1-1.78-6.2,1.34,1.34,0,0,0-.8-.89c-.18-.1-.4.07-.49.25a.82.82,0,0,0,.11,1,4,4,0,0,1,.52,1.78,34.79,34.79,0,0,0,1.21,3.8A39.4,39.4,0,0,0,438.16,243.41ZM403.37,272.6c.42-.79-.51-1.26-.5-2s-.37-1.52-1.2-1.45-1.21.82-1.31,1.61a5.11,5.11,0,0,0,.4,2.2c.24.75.67,1.14,1.25,1.06S403.77,273.91,403.37,272.6ZM430.17,222a4.08,4.08,0,0,0,1.35,3.32.89.89,0,0,0,1,.22.4.4,0,0,0,.15-.53,12.61,12.61,0,0,0-1.49-3.17.7.7,0,0,0-.85-.25C430,221.71,430.16,222.06,430.17,222ZM421,246.5c-.67,0-.49.54-.63.81s-.19.9.4,1,1.11,0,1.06,1a2.26,2.26,0,0,0,1.77.71c.3,0,.27-.39.12-.58s-.49-.65-.78-.7c-.56-.09-.75-.24-.85-.85S421.17,247.09,421,246.5Zm-45.66,56.05c0-.07-.08-.29-.18-.31a4.37,4.37,0,0,1-1.78-1.24c-.36-.33-.91-.48-1.24,0s0,1,.48,1.26a14,14,0,0,0,2,.74C374.9,303.14,375.34,303.23,375.34,302.55Zm26-98c.37-.72,0-1-.57-1.13-.4-.11-.84-.26-1,.2s-.27,1,.35,1.32c.22.11.2.31.29.47.16.32.19.88.76.66s.38-.65.35-1A2.42,2.42,0,0,0,401.35,204.54Zm-26.84,57.33c.24-.87-.17-1.35-.16-1.91a.5.5,0,0,0-.45-.47c-.32-.07-.35.23-.51.37-.8.68-.07,1.24.06,1.87s.22.85.79.78S374.5,261.9,374.51,261.87Zm59.4-31.42c.26.56.31,1.39,1.22,1.6.27.06.52-.14.4-.41-.33-.74-.11-1.85-1.11-2.15C433.79,229.31,434,230,433.91,230.45Zm-58.1,66.48a6.48,6.48,0,0,0,0-.71c0-.28.15-.66-.34-.75s-.47.37-.65.63c-.37.54.2,1,.11,1.47-.06.33-.12.76.46.73s.41-.46.43-.79S375.81,297.12,375.81,296.93ZM372,279.74a15,15,0,0,1-.45-1.75c-.06-.42-.22-.56-.61-.5s-.58.34-.52.77c.1.74.82,1.08,1.06,1.73,0,.06.22.08.32.06S372,279.83,372,279.74Zm1.83-9.46a.68.68,0,0,0-.51.83c.1.37,0,1.06.67,1s.55-.7.6-1.08A.66.66,0,0,0,373.79,270.28ZM439,245.92c0,.44-.06,1,.54,1,.36,0,.81-.16.58-.6s.14-1.23-.66-1.3S439.07,245.61,439,245.92ZM397.8,204.27c.5-.22,1.41.28,1.43-.35s-.87-.23-1.33-.38a.22.22,0,0,0-.12,0c-.41.11-1.19-.3-1.2.3C396.57,204.65,397.41,204,397.8,204.27Zm3.08,63.1c-.19.78.17,1.08.74,1.15.32,0,.38-.24.34-.48-.09-.54-.25-1.18-.77-1.31S400.94,267.23,400.88,267.37Zm39.07-18c0,.39-.06.85.48.94s.68-.5.61-.66c-.15-.33,0-1-.66-.95C439.9,248.66,439.95,249,439.95,249.32Zm-5.82-17.39a.63.63,0,0,0-.72-.57c-.31,0-.66,0-.65.45s.17.68.61.71A.63.63,0,0,0,434.13,231.93Zm7.66,32.54c0-.48-.28-.43-.55-.44s-.73.05-.79.51.28.39.55.4S441.71,264.87,441.79,264.47ZM410.15,235c-.32,0-.45.14-.44.49s.17.62.55.63a.51.51,0,0,0,.58-.59C410.81,235.15,410.55,235,410.15,235Zm31.19,17c-.41-.11.09-.93-.66-.94a.27.27,0,0,0-.22.43c.33.34-.1,1,.55,1.15C441.35,252.72,441.33,252.39,441.34,252Zm-14.41,4.39c0-.3,0-.55-.41-.56s-.51.13-.49.48.16.61.54.65S426.91,256.67,426.93,256.42Z" transform="translate(-239.26 -131.98)"/><path class="cls-1" d="M454.28,190.78c-1.18-.11-1.64-1.23-2.47-1.83s-1.32-1.81-2.67-1.88c-.34,0-.79-.57-.94-1a1.26,1.26,0,0,0-1.59-.83,1.31,1.31,0,0,1-1.3-.58c-1-1.41-2.56-2.05-4-2.83s-3.26-1.69-4.91-2.42c-1-.44-1.71-1.27-2.62-1.51a5.71,5.71,0,0,1-2.64-1.34c-.1-.1-.32-.2-.41-.16-.51.25-1.35.42-1.5.14-.59-1.13-2.09-1.72-2-3.25a34.53,34.53,0,0,1,4.76,2.13c2.37,1,4.72,2.09,7,3.22a47.37,47.37,0,0,1,7.72,5.18c1.59,1.2,3.24,2.31,4.8,3.55A9.83,9.83,0,0,1,454.28,190.78Z" transform="translate(-239.26 -131.98)"/><path class="cls-1" d="M429.63,325.26c.13-1.12,1.23-1.4,1.89-2,2.21-1.9,4.18-4,6.2-6.1a10.36,10.36,0,0,0,2-2.14c.12-.23.43-.14.67-.14-.72,1.64-2.13,2.72-3.34,3.93-2.17,2.18-4.09,4.65-6.8,6.24C430,325.19,429.89,325.46,429.63,325.26Z" transform="translate(-239.26 -131.98)"/><path class="cls-1" d="M410,337.14a.56.56,0,0,1,.41-.72c2.22-.71,3.88-2.38,5.89-3.46,1-.53,1.8-1.42,3-1.48-.21.79-1,.93-1.55,1.33A28.57,28.57,0,0,1,410,337.14Z" transform="translate(-239.26 -131.98)"/><path class="cls-1" d="M462.91,206.87c-.6,0-.9-.3-1.16-.8a4.59,4.59,0,0,0-.91-1.31c-.66-.62.05-1.32.21-2A15.13,15.13,0,0,1,462.91,206.87Z" transform="translate(-239.26 -131.98)"/><path class="cls-1" d="M421.27,330.4c0-.11,0-.3,0-.33q2.33-1.46,4.69-2.89c.12-.07.31,0,.47,0-.29.85-1.13,1-1.78,1.4A10.43,10.43,0,0,1,421.27,330.4Z" transform="translate(-239.26 -131.98)"/><path class="cls-1" d="M385.17,167.73a5.16,5.16,0,0,1-2.64-1.49C384.43,165.17,384.57,165.26,385.17,167.73Z" transform="translate(-239.26 -131.98)"/><path class="cls-1" d="M427.49,326.61a2.36,2.36,0,0,1,2.16-1.38A2.81,2.81,0,0,1,427.49,326.61Z" transform="translate(-239.26 -131.98)"/><path class="cls-1" d="M388.35,168.38c-1.25.78-1.84.69-2.18-.34A7.56,7.56,0,0,1,388.35,168.38Z" transform="translate(-239.26 -131.98)"/><path class="cls-1" d="M458.89,198.38c0,.55-.34.72-.76.49a.46.46,0,0,1,0-.79.89.89,0,0,0,.36-.55C458.6,197.82,458.92,198,458.89,198.38Z" transform="translate(-239.26 -131.98)"/><path class="cls-1" d="M499.69,435.41c-1.81.05-2.16-.23-2.62-1.78a20.4,20.4,0,0,1-.59-3.15c-.42-3.22.9-3.9,3.54-4.21,1.67-.2,2,.27,1.85,1.93a24.74,24.74,0,0,0-.16,6,.86.86,0,0,1-.8,1.09C500.44,435.33,500,435.38,499.69,435.41Z" transform="translate(-239.26 -131.98)"/><path class="cls-1" d="M517.7,428.51c0,.84-.07,1.29-1,.84a17.61,17.61,0,0,0-2.44-.79c-.2-.07-.49-.13-.43-.46a.45.45,0,0,1,.38-.39,7.08,7.08,0,0,1,2.58-.21A.92.92,0,0,1,517.7,428.51Z" transform="translate(-239.26 -131.98)"/><path class="cls-1" d="M437,407.74c-.29-4.15.26-8.29.28-12.44a19.68,19.68,0,0,1,.43-3.3,27.71,27.71,0,0,0,.05-5.49,68.26,68.26,0,0,1,.27-8.25,46.35,46.35,0,0,0-.09-6.57c0-.89.32-1.06,1.08-1.13,1.6-.16,3.06.45,4.58.7a40.41,40.41,0,0,1,10.49,3,8.35,8.35,0,0,1,4.71,5.24,13.71,13.71,0,0,0,3.38,5.13,1.84,1.84,0,0,1,.48,2.13c-.77,2.16-.94,4.49-1.88,6.61-.38.87-.61,1.81-1,2.67-.67,1.36,0,2.84-.47,4.22-.66,1.95-.9,4.16-2.45,5.61-2.12,2-4.19,4.28-7.63,3.69a8,8,0,0,0-4.62.91c-2.42,1.09-4.78.32-7.17.15-.46,0-.43-.4-.43-.72C437,409.18,437,408.46,437,407.74Z" transform="translate(-239.26 -131.98)"/><path class="cls-1" d="M314.92,396.68a20.56,20.56,0,0,1-1,4.84c-.49,2-2.15,2.85-3.49,4a26.72,26.72,0,0,0-3.22,3.17c-1.71,2.1-4.09,2.63-6.64,2.53a35.62,35.62,0,0,0-5.85-.08c-.55.07-.94-.07-.75-.68.67-2.17-.12-4.26-.28-6.38-.26-3.45-.51-6.91-.9-10.34a58.2,58.2,0,0,1-.07-7.39,90,90,0,0,0-.88-10.8c-.12-1.15,0-2.31-.08-3.47,0-.62.38-.72.76-.53,2.06,1,4.57,1,6.31,2.81a12.33,12.33,0,0,0,3.23,2,15.44,15.44,0,0,1,5.6,5.55,62,62,0,0,0,4.47,6A12.94,12.94,0,0,1,314.92,396.68Z" transform="translate(-239.26 -131.98)"/><path class="cls-1" d="M449.87,431.47c-.15-1.09.65-2.48,1.38-3.88a1.73,1.73,0,0,1,1.64-.79,1.11,1.11,0,0,1,1.12.91,28.84,28.84,0,0,1,1,5.81c0,1.41-2.65,3.28-4,2.85-.29-.09-.33-.3-.42-.51A9.69,9.69,0,0,1,449.87,431.47Z" transform="translate(-239.26 -131.98)"/><path class="cls-1" d="M476.92,432.14c0-2.08,1-3.54,2.75-3.85.74-.13,1.19-.08,1.39.91.39,1.93.45,4,1.45,5.73a.87.87,0,0,1-.34,1.16c-.66.46-1.25,1.11-2.23.84a4.48,4.48,0,0,1-3-3.75A9.81,9.81,0,0,1,476.92,432.14Z" transform="translate(-239.26 -131.98)"/><path class="cls-1" d="M356.12,387.1c.09,2,0,2.12-1.55,2a41.31,41.31,0,0,0-7.86-.11c-.86.12-1.06-.14-.64-1a95,95,0,0,0,5.53-12.2c.23-.67.54-.64,1-.15a7.06,7.06,0,0,1,1.48,3.08A47.45,47.45,0,0,1,356.12,387.1Z" transform="translate(-239.26 -131.98)"/><path class="cls-1" d="M415.67,426.88c.13-.26-.25-.92.43-.82a1.75,1.75,0,0,1,1.35,1.48c.13.49-.31.4-.52.35C416.37,427.77,415.54,427.94,415.67,426.88Z" transform="translate(-239.26 -131.98)"/><path class="cls-1" d="M452.9,316.3c-.41.12-.83.22-1.23.36-.23.08-.48.22-.62,0s-.12-.63,0-.67c.76-.34.2-.86.21-1.29,0-.94.07-1.84,1.26-2.07.25,0,.46-.09.66.09s.3.5.12.63a1.67,1.67,0,0,0-.41,2.67c.06.08,0,.23,0,.35Z" transform="translate(-239.26 -131.98)"/><path class="cls-1" d="M452.35,312a.52.52,0,0,1-.52.44c-.34,0-.35-.23-.36-.47s.13-.43.43-.42S452.39,311.57,452.35,312Z" transform="translate(-239.26 -131.98)"/><path class="cls-1" d="M369.81,284.73c-.71.53-1.33.61-1.93-.05a.55.55,0,0,1,0-.84c.25-.25.53-.62.87-.2s.75.35.72.17c-.12-.59.87-1,.23-1.57s-1.14-1-1.71-1.47c-.12-.1-.23-.22-.39-.06a.3.3,0,0,0-.05.41,2.21,2.21,0,0,1,.29.77c0,.42,0,1.15-.48,1s-1.46.44-1.56-.81c-.08-1-.2-1.93-.33-2.88-.2-1.48.27-3-.18-4.44s-.1-3.08-.47-4.6a2.88,2.88,0,0,1,0-1.07.56.56,0,0,1,.61-.46c.36,0,.42.18.51.49a26.21,26.21,0,0,0,1.89,4.91c.53,1,.32,2.23,1,3.21.06.09,0,.27.06.35,1.77,2.15,1.87,5,3.13,7.42a10,10,0,0,1,.6,5.49c-.07.74-.73.5-1.18.21-.65-.43-.59-1.22-.89-1.82C369.53,286.68,369.54,286.67,369.81,284.73Z" transform="translate(-239.26 -131.98)"/><path class="cls-1" d="M419,267.3a2.69,2.69,0,0,1-1.79,1.94c-.19,0-.54,0-.5-.17.19-.94-.88-1.33-.85-2.32a7.64,7.64,0,0,0-1.41-3.68c-.8-1.42-1.18-3.05-2.08-4.38a24.8,24.8,0,0,1-1.13-2.54c-.22-.41-.17-.92-.85-.84-.05,0-.2-.17-.19-.25.3-1.55-1-2.52-1.42-3.78a.45.45,0,0,1,0-.23c.34-1.52-1.43-2.17-1.45-3.53,0-.25-.18-.33-.4-.33-.4,0-.73-.23-.47-.55s-.15-1.09.63-1.1c.41,0,.79,0,.94.52s.36.82,1,.74.75.55.79,1.06a14.24,14.24,0,0,1,.08,2c0,.64.27.88.76,1.26a3,3,0,0,1,1.1,1.94c.05,1.18,1,1.74,1.56,2.45.35.45.4.93.67,1.29,1.51,2,2,4.39,3.18,6.48.65,1.16,1.54,2.17,1.71,3.56A2.32,2.32,0,0,0,419,267.3Z" transform="translate(-239.26 -131.98)"/><path class="cls-1" d="M371.7,267.33a31.29,31.29,0,0,1,0,4.76c0,.28.16.68-.33.76s-.44-.34-.61-.63a27,27,0,0,1-1.93-4.27c-.17-.47-1-.18-.94-.9,0-.92-.11-1.86,1.16-2,.68-.09.77-.57.78-1.12,0-.28,0-.57.4-.58s.38.25.56.43C371.84,264.76,371.8,266,371.7,267.33Z" transform="translate(-239.26 -131.98)"/><path class="cls-1" d="M424.07,265.2c.43,2-2.11,3.14-3.62,2.86-.28-.05-.44-.15-.42-.45s0-.78-.58-.83c-.2,0-.43-.3-.34-.41.65-.82.06-2.14,1.18-2.79.24-.14.57-.23.71-.57.43-1,1-.82,1.56-.11.1.12.18.35.28.35C424.24,263.3,424.07,264.31,424.07,265.2Z" transform="translate(-239.26 -131.98)"/><path class="cls-1" d="M408.49,268.57c.13-.52.32-1.16-.6-1.35-.05,0-.13-.23-.1-.31.6-1.44,0-2.74-.46-4.06-.11-.33.15-.69.39-.45.5.5,1.19.71,1.52,1.56.44,1.13.84,2.29,1.25,3.43a22.2,22.2,0,0,1,1.3,2.87c.21,1-.15,1.46-1.3,1.64-.94.15-1.34-.29-1.28-1.19a1.14,1.14,0,0,0-.45-1C408.44,269.39,408.53,269,408.49,268.57Z" transform="translate(-239.26 -131.98)"/><path class="cls-1" d="M426.93,262.41c.52-.79,0-1.87.8-2.59a.55.55,0,0,0,0-.85c-.79-.77-.48-1.76-.54-2.68,0-.51.31-.67.77-.68s1,.56,1.05-.4a1.27,1.27,0,0,1,.55,0,.31.31,0,0,1,.15.49c-.49.62-.16,1.25-.06,1.87,0,.15.13.41.08.44-1.43.89-.22,2.16-.48,3.21-.08.31,0,.39.26.46a.43.43,0,0,1,.22.65c-.61.19-.55.88-.92,1.16s-.78,1.07-1.38.69S427.23,263,426.93,262.41Z" transform="translate(-239.26 -131.98)"/><path class="cls-1" d="M438.16,243.41a39.4,39.4,0,0,1-1.08-4,34.79,34.79,0,0,1-1.21-3.8,4,4,0,0,0-.52-1.78.82.82,0,0,1-.11-1c.1-.17.32-.35.49-.25a1.34,1.34,0,0,1,.8.89,57.49,57.49,0,0,0,1.78,6.2c.43,1.39.71,2.8,1.09,4.2,0,.18.08.43-.13.53a1.22,1.22,0,0,1-1,0C437.87,244.3,438,243.93,438.16,243.41Z" transform="translate(-239.26 -131.98)"/><path class="cls-1" d="M403.37,272.6c.4,1.31-.7,1.29-1.36,1.38s-1-.31-1.25-1.06a5.11,5.11,0,0,1-.4-2.2c.1-.79.52-1.54,1.31-1.61s1.22.76,1.2,1.45S403.79,271.8,403.37,272.6Z" transform="translate(-239.26 -131.98)"/><path class="cls-1" d="M430.17,222c0,.07-.19-.27.16-.41a.7.7,0,0,1,.85.25,12.61,12.61,0,0,1,1.49,3.17.4.4,0,0,1-.15.53.89.89,0,0,1-1-.22A4.08,4.08,0,0,1,430.17,222Z" transform="translate(-239.26 -131.98)"/><path class="cls-1" d="M421,246.5c.17.58,1,.8,1.08,1.39s.3.76.85.85c.29,0,.56.42.78.7s.18.54-.12.58a2.26,2.26,0,0,1-1.77-.71c0-.92-.51-.84-1.06-1s-.61-.63-.4-1S420.33,246.51,421,246.5Z" transform="translate(-239.26 -131.98)"/><path class="cls-1" d="M375.34,302.55c0,.68-.44.59-.75.49a14,14,0,0,1-2-.74c-.51-.24-.83-.71-.48-1.26s.88-.37,1.24,0a4.37,4.37,0,0,0,1.78,1.24C375.26,302.26,375.31,302.49,375.34,302.55Z" transform="translate(-239.26 -131.98)"/><path class="cls-1" d="M401.35,204.54a2.42,2.42,0,0,1,.13.49c0,.39.12.86-.35,1s-.6-.34-.76-.66c-.08-.17-.06-.37-.29-.47-.62-.3-.57-.85-.35-1.32s.64-.31,1-.2C401.38,203.57,401.73,203.82,401.35,204.54Z" transform="translate(-239.26 -131.98)"/><path class="cls-1" d="M374.51,261.87s.38.56-.28.64-.69-.28-.79-.78-.87-1.2-.06-1.87c.16-.14.2-.44.51-.37a.5.5,0,0,1,.45.47C374.34,260.52,374.75,261,374.51,261.87Z" transform="translate(-239.26 -131.98)"/><path class="cls-1" d="M433.91,230.45c.11-.47-.12-1.14.52-1,1,.3.78,1.4,1.11,2.15.12.27-.13.47-.4.41C434.22,231.84,434.17,231,433.91,230.45Z" transform="translate(-239.26 -131.98)"/><path class="cls-1" d="M375.81,296.93c0,.2,0,.4,0,.59s.14.76-.43.79-.52-.41-.46-.73c.1-.51-.48-.93-.11-1.47.18-.27.11-.73.65-.63s.31.47.34.75A6.89,6.89,0,0,1,375.81,296.93Z" transform="translate(-239.26 -131.98)"/><path class="cls-1" d="M372,279.74c0,.1,0,.28-.2.31s-.3,0-.32-.06c-.24-.65-1-1-1.06-1.73-.06-.43.07-.7.52-.77s.55.08.61.5A15,15,0,0,0,372,279.74Z" transform="translate(-239.26 -131.98)"/><path class="cls-1" d="M373.79,270.28a.66.66,0,0,1,.77.76c-.05.39.06,1-.6,1.08s-.57-.65-.67-1A.68.68,0,0,1,373.79,270.28Z" transform="translate(-239.26 -131.98)"/><path class="cls-1" d="M439,245.92c.09-.31-.21-.91.46-.85s.43.87.66,1.3-.22.65-.58.6C438.92,246.89,439,246.36,439,245.92Z" transform="translate(-239.26 -131.98)"/><path class="cls-1" d="M397.8,204.27c-.38-.28-1.22.38-1.21-.43,0-.59.78-.18,1.2-.3a.22.22,0,0,1,.12,0c.47.15,1.36-.33,1.33.38S398.29,204.05,397.8,204.27Z" transform="translate(-239.26 -131.98)"/><path class="cls-1" d="M400.88,267.37c.07-.14-.26-.78.31-.64s.68.77.77,1.31c0,.24,0,.52-.34.48C401,268.45,400.69,268.15,400.88,267.37Z" transform="translate(-239.26 -131.98)"/><path class="cls-1" d="M439.95,249.32c0-.32,0-.66.44-.67.66,0,.51.62.66.95.07.16-.12.74-.61.66S440,249.71,439.95,249.32Z" transform="translate(-239.26 -131.98)"/><path class="cls-1" d="M434.13,231.93a.63.63,0,0,1-.77.59c-.44,0-.61-.28-.61-.71s.34-.44.65-.45A.63.63,0,0,1,434.13,231.93Z" transform="translate(-239.26 -131.98)"/><path class="cls-1" d="M441.79,264.47c-.08.4-.4.49-.79.47s-.6,0-.55-.4.4-.53.79-.51S441.83,264,441.79,264.47Z" transform="translate(-239.26 -131.98)"/><path class="cls-1" d="M410.15,235c.4,0,.66.16.68.53a.51.51,0,0,1-.58.59c-.38,0-.53-.27-.55-.63S409.83,235,410.15,235Z" transform="translate(-239.26 -131.98)"/><path class="cls-1" d="M441.34,252c0,.37,0,.69-.33.63-.66-.11-.23-.82-.55-1.15a.27.27,0,0,1,.22-.43C441.43,251.1,440.93,251.91,441.34,252Z" transform="translate(-239.26 -131.98)"/><path class="cls-1" d="M426.93,256.42c0,.25.09.61-.37.57s-.53-.28-.54-.65.15-.49.49-.48S426.95,256.13,426.93,256.42Z" transform="translate(-239.26 -131.98)"/></svg>